<svg xmlns="http://www.w3.org/2000/svg" width="39.988" height="47.852" viewBox="0 0 39.988 47.852"><g id="Group_1141" data-name="Group 1141" transform="translate(0 0)"><path id="Path_1423" data-name="Path 1423" d="M697.687,253.3a51.852,51.852,0,0,1-9.249-.989c-3.246-.632-6.3-1.507-8.6-2.2l-.484-.145-.484.145c-2.3.692-5.359,1.567-8.6,2.2a51.853,51.853,0,0,1-9.249.989l-1.656.024v1.656c0,2.639,0,5.327.007,7.926s.007,5.316.007,7.985v.053a35.987,35.987,0,0,0,1.347,9.38,19.1,19.1,0,0,0,3.545,6.693c3.029,3.677,7.354,6.232,13.339,9.768l.893.528.855.506.856-.506.892-.528c5.986-3.536,10.311-6.091,13.339-9.768a19.094,19.094,0,0,0,3.545-6.693,35.984,35.984,0,0,0,1.347-9.38v-.053c0-2.669,0-5.371.007-7.985s.007-5.287.007-7.926v-1.656Z" transform="translate(-659.355 -249.967)" fill="#fff"></path><path id="Path_1424" data-name="Path 1424" d="M696.311,313.577c12.256-7.25,17.838-10.181,18.3-24.975,0-5.329.014-10.624.014-15.911a64.952,64.952,0,0,1-18.314-3.259A64.951,64.951,0,0,1,678,272.691c0,5.287.013,10.582.013,15.911.463,14.795,6.044,17.725,18.3,24.975" transform="translate(-676.316 -267.678)" fill="#ce0020" fill-rule="evenodd"></path><path id="Path_1425" data-name="Path 1425" d="M836.444,674.835h-.575v-1.991a1.99,1.99,0,0,1-.743.393v-.477a1.817,1.817,0,0,0,.491-.253.985.985,0,0,0,.365-.435h.463Zm.968-1.487a.819.819,0,0,1-.323-.224.56.56,0,0,1-.1-.337.616.616,0,0,1,.253-.533,1.018,1.018,0,0,1,.631-.183.952.952,0,0,1,.659.2.589.589,0,0,1,.238.505.507.507,0,0,1-.1.337.609.609,0,0,1-.309.238.754.754,0,0,1,.379.253.68.68,0,0,1,.126.421.768.768,0,0,1-.266.617,1.036,1.036,0,0,1-.7.238,1.117,1.117,0,0,1-.715-.224.8.8,0,0,1-.154-1.038.774.774,0,0,1,.379-.267m.112-.533a.35.35,0,0,0,.1.253.506.506,0,0,0,.126.056.412.412,0,0,0,.126.028.392.392,0,0,0,.252-.084.34.34,0,0,0,.014-.491.373.373,0,0,0-.252-.1.384.384,0,0,0-.267.1.289.289,0,0,0-.1.238m-.056,1.178a.455.455,0,0,0,.126.336.4.4,0,0,0,.295.126.381.381,0,0,0,.294-.126.414.414,0,0,0,.126-.336.425.425,0,0,0-.112-.294.391.391,0,0,0-.308-.127.411.411,0,0,0-.309.127.45.45,0,0,0-.112.294m1.767.2.561-.056a.291.291,0,0,0,.323.309.376.376,0,0,0,.323-.168,1.183,1.183,0,0,0,.1-.253,1.334,1.334,0,0,0,.042-.351.728.728,0,0,1-.238.168l-.07.028-.084.028h-.14a.848.848,0,0,1-.617-.253.967.967,0,0,1,.014-1.318.968.968,0,0,1,.687-.252.954.954,0,0,1,.757.323,1.671,1.671,0,0,1,.281,1.066,1.928,1.928,0,0,1-.14.814.972.972,0,0,1-.379.463,1.127,1.127,0,0,1-.575.14.762.762,0,0,1-.841-.687m1.29-1.15a.6.6,0,0,0-.112-.379.348.348,0,0,0-.295-.154.335.335,0,0,0-.281.127.54.54,0,0,0-.1.365.581.581,0,0,0,.112.379.336.336,0,0,0,.295.14.346.346,0,0,0,.267-.126.239.239,0,0,0,.084-.14.477.477,0,0,0,.028-.21m1.935-.968a.787.787,0,0,1,.715.351,1.039,1.039,0,0,1,.182.435.413.413,0,0,1,.028.126c.014.042.014.112.028.2s.014.182.014.294a1.82,1.82,0,0,1-.253,1.052.786.786,0,0,1-.715.35.868.868,0,0,1-.715-.322,1.169,1.169,0,0,1-.2-.421,3.161,3.161,0,0,1-.057-.673,1.75,1.75,0,0,1,.239-1.038.812.812,0,0,1,.73-.351m0,.435a.317.317,0,0,0-.295.2.429.429,0,0,1-.028.112l-.028.169-.014.224-.014.266a2.284,2.284,0,0,0,.084.771.317.317,0,0,0,.295.2.328.328,0,0,0,.28-.2l.014-.056.014-.07.028-.168.014-.112.014-.1v-.267a2.3,2.3,0,0,0-.084-.771.3.3,0,0,0-.28-.2" transform="translate(-819.283 -634.025)" fill="#fff" fill-rule="evenodd"></path><path id="Path_1426" data-name="Path 1426" d="M725.209,363.77v-3.422h2.973v3.422h-.757v-2.847h-1.472v2.847Zm6.787,0h-.813L730.86,363h-1.487l-.309.771h-.8l1.459-3.422h.785Zm-1.374-1.346-.519-1.276-.491,1.276Zm1.669,1.346v-3.422h.729l1.515,2.286v-2.286h.7v3.422h-.757l-1.5-2.23v2.23Zm3.814-3.422h.743v3.422h-.743Zm1.346,3.422v-.575h.715a1.907,1.907,0,0,1-.659-1.374,1.416,1.416,0,0,1,.477-1.094,2.153,2.153,0,0,1,2.594,0,1.417,1.417,0,0,1,.477,1.094,1.956,1.956,0,0,1-.659,1.374h.715v.575h-1.7v-.547a1.2,1.2,0,0,0,.645-.477,1.3,1.3,0,0,0,.224-.757,1.214,1.214,0,0,0-.252-.771.877.877,0,0,0-.743-.337.888.888,0,0,0-.743.323,1.144,1.144,0,0,0-.2.365,1.474,1.474,0,0,0-.07.421,1.9,1.9,0,0,0,.056.407,1.612,1.612,0,0,0,.168.351,1.266,1.266,0,0,0,.645.477v.547Zm4.193,0v-3.422h.729l1.515,2.286v-2.286h.7v3.422h-.757l-1.5-2.23v2.23Zm3.814-3.422h.744v3.422h-.744Zm1.3,1.739a1.828,1.828,0,0,1,.477-1.318,1.782,1.782,0,0,1,1.332-.477,1.714,1.714,0,0,1,1.3.477,1.768,1.768,0,0,1,.477,1.29,1.724,1.724,0,0,1-.477,1.29,1.648,1.648,0,0,1-1.248.477,2.093,2.093,0,0,1-1.01-.2,1.426,1.426,0,0,1-.617-.6,1.837,1.837,0,0,1-.238-.94m.785-.028a1.2,1.2,0,0,0,.294.884.983.983,0,0,0,.729.294,1.078,1.078,0,0,0,.729-.28,1.228,1.228,0,0,0,.294-.912,1.268,1.268,0,0,0-.266-.869,1,1,0,0,0-.758-.295.934.934,0,0,0-.743.309,1.181,1.181,0,0,0-.28.869m3.309-1.711h2.566v.575h-1.641l.953,1.066-1.051,1.206h1.823v.575h-2.693v-.631l1-1.15-.954-1.024Z" transform="translate(-719.273 -350.348)" fill="#fff" fill-rule="evenodd"></path><rect id="Rectangle_669" data-name="Rectangle 669" width="29.056" height="0.182" transform="translate(5.465 8.184)" fill="#fff"></rect><rect id="Rectangle_670" data-name="Rectangle 670" width="29.056" height="0.183" transform="translate(5.465 14.915)" fill="#fff"></rect><path id="Path_1427" data-name="Path 1427" d="M706.862,263.8c-4.024-.058-9-.49-18.1-3.226l-.222-.067-.222.067a64.733,64.733,0,0,1-18.1,3.226l-.759.011v.759c0,2.639,0,5.326.007,7.925s.007,5.317.007,7.986v.024c.224,7.166,1.625,11.809,4.685,15.523,2.927,3.553,7.194,6.074,13.1,9.563l1.285.76,1.285-.76c5.906-3.489,10.173-6.01,13.1-9.563,3.06-3.714,4.461-8.357,4.685-15.523v-.024c0-2.669,0-5.372.007-7.986s.007-5.286.007-7.925v-.759ZM671,272.5c0-2.351-.006-4.775-.007-7.17a54.639,54.639,0,0,0,8.923-1.017c3.248-.632,6.292-1.494,8.621-2.191a66.746,66.746,0,0,0,17.544,3.208c0,2.394,0,4.818-.007,7.17,0,1.675,0,3.387-.006,5.1l-34,10.973a34.932,34.932,0,0,1-1.06-8.1c0-2.666,0-5.365-.007-7.976m30.733,22.556c-2.755,3.344-6.924,5.807-12.694,9.216l-.5.3-.5-.3c-5.77-3.409-9.94-5.872-12.694-9.216-.034-.041-.066-.082-.1-.123l30.474-9.94a18.993,18.993,0,0,1-3.982,10.063" transform="translate(-668.543 -259.56)" fill="#00388e"></path><path id="Path_1428" data-name="Path 1428" d="M802.313,513.2l2.931-.953.252.645-2.089.687,1.22,3.169-.841.28Zm4.922,2.707-.281-.743.8-.253.28.729Zm.042-4.319.266.687,1.5.8-.631,1.641.281.715,3.015-.982-.253-.645-2.033.673.659-1.739-1.515-.841,1.837-.589-.252-.645Zm5.049,2.664-.281-.729.785-.266.281.743Zm.042-4.3.266.687,1.486.785-.617,1.641.267.729,3.015-.982-.238-.645-2.047.659.673-1.739-1.529-.813,1.837-.6-.239-.645Zm5.034,2.65-.28-.729.8-.252.28.729Z" transform="translate(-789.428 -485.676)" fill="#fff" fill-rule="evenodd"></path></g></svg>